<svg xmlns="http://www.w3.org/2000/svg" width="298" height="241" fill="none" viewBox="0 0 298 241">
  <path fill="#FCA674" d="M28.22 83.37h11.43V99.2H28.9V133H7.2V99.2H0V83.38h7.2v-.29c0-6.85 2.05-12.26 6.14-16.22 4.1-4.04 9.86-6.05 17.28-6.05 2.44 0 4.8.22 7.1.67 2.31.45 4.23 1.09 5.77 1.92L38.3 78.47a11.77 11.77 0 0 0-4.9-1.25c-1.6 0-2.87.52-3.83 1.54-.9.96-1.35 2.46-1.35 4.51v.1zM74 86.15c3.84-4.41 9.5-6.62 17-6.62v19.2a32.9 32.9 0 0 0-4.8-.39c-7.43 0-11.14 3.78-11.14 11.33V133h-21.7V80.49H74v5.66zm46.2-6.62c9.21 0 16.25 2.08 21.11 6.24 4.87 4.1 7.3 10.43 7.3 19V133h-20.16v-6.91c-2.5 5.25-7.45 7.87-14.88 7.87-4.16 0-7.71-.7-10.65-2.11a16.48 16.48 0 0 1-6.63-5.86 16.13 16.13 0 0 1-2.2-8.35c0-5.18 1.98-9.12 5.94-11.8 3.97-2.7 9.99-4.04 18.05-4.04h8.74c-.7-4.1-4-6.14-9.89-6.14-2.37 0-4.77.38-7.2 1.15-2.43.7-4.51 1.7-6.24 2.97l-6.91-14.3c3-1.86 6.62-3.3 10.85-4.32a51.76 51.76 0 0 1 12.76-1.63zm-.1 41.37c1.54 0 2.91-.41 4.13-1.24a7.22 7.22 0 0 0 2.69-3.75v-3.65h-5.38c-4.42 0-6.63 1.48-6.63 4.42 0 1.22.45 2.24 1.35 3.07a5.97 5.97 0 0 0 3.84 1.15zm74.37-41.37c6.46 0 11.65 1.95 15.55 5.85 3.97 3.9 5.95 9.8 5.95 17.67V133h-21.7v-26.2c0-6.02-2.14-9.03-6.43-9.03a7.6 7.6 0 0 0-5.95 2.59c-1.47 1.66-2.2 4.32-2.2 7.97V133h-21.7V80.49h20.64v5.18a20.02 20.02 0 0 1 7.1-4.6 24.34 24.34 0 0 1 8.74-1.54zm56.08 37.34l-3.46 3.75V133h-21.7V61.77h21.7v33.98l15.07-15.26h25.63l-21.7 22.75L289.53 133h-26.2l-12.77-16.13z"/>
  <path fill="#333" d="M72.42 32.34c3.41 0 6.5.82 9.3 2.45a16.91 16.91 0 0 1 6.54 6.7 19.51 19.51 0 0 1 2.45 9.79c0 3.65-.81 6.91-2.45 9.8a17.42 17.42 0 0 1-6.55 6.76 18.45 18.45 0 0 1-9.29 2.38c-3.64 0-6.9-.92-9.79-2.74a16.98 16.98 0 0 1-6.33-7.7V70H54V16.58h2.37v26.06a16.6 16.6 0 0 1 6.33-7.56 17.78 17.78 0 0 1 9.72-2.74zm-.07 35.72A15.33 15.33 0 0 0 86.25 60a17.85 17.85 0 0 0 2.09-8.72c0-3.26-.7-6.14-2.1-8.64a14.83 14.83 0 0 0-5.75-5.9 15.5 15.5 0 0 0-8.14-2.16c-3.02 0-5.76.72-8.2 2.16-2.4 1.39-4.3 3.36-5.7 5.9a17.44 17.44 0 0 0-2.08 8.64c0 3.26.7 6.17 2.09 8.71a15.5 15.5 0 0 0 5.68 5.98 16.31 16.31 0 0 0 8.21 2.09zm60.9-16.42H100.5c.05 3.17.8 6 2.23 8.5 1.45 2.5 3.41 4.44 5.9 5.83a17.4 17.4 0 0 0 8.5 2.09c2.55 0 4.9-.46 7.06-1.37a13.46 13.46 0 0 0 5.33-4.18l1.51 1.59a16.87 16.87 0 0 1-6.12 4.53 19.1 19.1 0 0 1-7.78 1.59c-3.64 0-6.9-.8-9.79-2.38a17.78 17.78 0 0 1-6.7-6.77 19.51 19.51 0 0 1-2.44-9.79c0-3.65.74-6.91 2.23-9.8a16.72 16.72 0 0 1 6.34-6.69 17 17 0 0 1 9-2.45c3.26 0 6.21.8 8.85 2.38 2.7 1.58 4.8 3.8 6.34 6.62a19.9 19.9 0 0 1 2.3 9.65v.65zm-17.5-17.14c-2.78 0-5.3.65-7.55 1.95a14.42 14.42 0 0 0-5.4 5.47 16.86 16.86 0 0 0-2.23 7.78h30.45c-.2-2.88-.98-5.48-2.38-7.78a14.42 14.42 0 0 0-12.88-7.42z"/>
  <path fill="#2BA9DF" d="M78.17 199.87l-3.46 3.75V216h-21.7v-71.23h21.7v33.98L89.8 163.5h25.63l-21.7 22.75L117.15 216H90.94l-12.77-16.13zm46.79-36.38h21.7V216h-21.7v-52.51zm10.84-4.23c-3.9 0-7.07-1.02-9.5-3.07a10.22 10.22 0 0 1-3.55-7.97c0-3.2 1.18-5.82 3.55-7.87 2.43-2.11 5.6-3.17 9.5-3.17 3.97 0 7.14 1 9.5 2.98a9.56 9.56 0 0 1 3.56 7.68c0 3.33-1.18 6.08-3.55 8.26-2.37 2.1-5.54 3.16-9.5 3.16zm60.45 3.27c6.46 0 11.65 1.95 15.55 5.85 3.97 3.9 5.95 9.8 5.95 17.67V216h-21.7v-26.2c0-6.02-2.14-9.03-6.43-9.03a7.6 7.6 0 0 0-5.95 2.59c-1.47 1.66-2.2 4.32-2.2 7.97V216h-21.7v-52.51h20.64v5.18a20.02 20.02 0 0 1 7.1-4.6 24.34 24.34 0 0 1 8.74-1.54zm93.44-17.76V216h-20.64v-4.32c-3.13 3.52-7.93 5.28-14.4 5.28-4.6 0-8.86-1.09-12.77-3.26a24.67 24.67 0 0 1-9.21-9.6c-2.24-4.16-3.36-8.96-3.36-14.4 0-5.44 1.12-10.21 3.36-14.3a23.98 23.98 0 0 1 9.22-9.51 25.21 25.21 0 0 1 12.76-3.36c5.83 0 10.28 1.5 13.35 4.51v-22.27h21.7zm-29.85 55.3c2.5 0 4.54-.9 6.14-2.7 1.6-1.85 2.4-4.41 2.4-7.67 0-3.27-.8-5.8-2.4-7.59a7.87 7.87 0 0 0-6.14-2.69c-2.5 0-4.55.9-6.15 2.7-1.6 1.78-2.4 4.31-2.4 7.58 0 3.26.8 5.82 2.4 7.68a7.87 7.87 0 0 0 6.15 2.68z"/>
  <path fill="#333" d="M44.14 217.72l-7.56-8.14c-3.94 5.14-9.5 7.7-16.7 7.7-3.13 0-5.89-.5-8.29-1.5a13.87 13.87 0 0 1-5.69-4.4 11.15 11.15 0 0 1-2.01-6.55c0-2.88.98-5.52 2.95-7.92 2.02-2.45 5.5-5.13 10.44-8.06l-.36-.43c-2.5-2.64-4.2-4.8-5.11-6.48-.87-1.73-1.3-3.6-1.3-5.62 0-3.02 1.01-5.45 3.03-7.27 2.06-1.83 4.82-2.74 8.28-2.74 3.26 0 5.83.84 7.7 2.52 1.92 1.63 2.88 3.89 2.88 6.77 0 2.45-.86 4.66-2.6 6.62-1.67 1.92-4.74 4.25-9.2 6.99l15.83 16.99a34.02 34.02 0 0 0 3.75-10.58l2.01.5c-.91 4.6-2.35 8.47-4.32 11.6l7.85 8.42-1.58 1.58zm-31.32-41.4c0 1.68.4 3.29 1.22 4.82.86 1.54 2.5 3.63 4.9 6.27l.28.29a54.2 54.2 0 0 0 6.63-4.4 13.84 13.84 0 0 0 3.38-3.74c.67-1.2 1.01-2.52 1.01-3.96 0-2.2-.74-3.96-2.23-5.26-1.49-1.34-3.55-2.01-6.2-2.01-2.78 0-4.99.74-6.62 2.23a7.4 7.4 0 0 0-2.37 5.76zm7.12 38.95c6.53 0 11.6-2.4 15.2-7.2l-16.42-17.71a58.88 58.88 0 0 0-7.56 5.18 15.48 15.48 0 0 0-3.82 4.4 10.48 10.48 0 0 0-1.08 4.75 9.35 9.35 0 0 0 3.75 7.7c2.54 1.92 5.85 2.88 9.93 2.88z"/>
</svg>
