<svg xmlns="http://www.w3.org/2000/svg" width="139" height="96" fill="none" viewBox="0 0 139 96">
  <path fill="#FF5E00" d="M13.47 31.86h5.45v7.56H13.8v16.12H3.44V39.42H0v-7.56h3.44v-.14c0-3.27.97-5.85 2.93-7.74 1.95-1.93 4.7-2.89 8.25-2.89 1.16 0 2.29.1 3.39.32s2.01.52 2.75.92l-2.48 7.19c-.85-.4-1.63-.6-2.34-.6a2.4 2.4 0 0 0-1.83.74c-.43.46-.64 1.17-.64 2.15v.05zM35.32 33.19c1.83-2.11 4.54-3.17 8.1-3.17v9.17a15.7 15.7 0 0 0-2.28-.19c-3.54 0-5.32 1.8-5.32 5.4v11.14H25.47V30.48h9.85v2.7zM57.37 30.02c4.4 0 7.75 1 10.08 2.98 2.32 1.96 3.48 4.98 3.48 9.07v13.47H61.3v-3.3c-1.2 2.5-3.56 3.76-7.1 3.76a11.7 11.7 0 0 1-5.1-1 7.86 7.86 0 0 1-3.15-2.8 7.7 7.7 0 0 1-1.06-3.99c0-2.47.95-4.35 2.84-5.63 1.9-1.29 4.77-1.93 8.62-1.93h4.17c-.34-1.95-1.91-2.93-4.72-2.93-1.13 0-2.28.18-3.44.55a9.3 9.3 0 0 0-2.98 1.42l-3.3-6.83a17.8 17.8 0 0 1 5.18-2.06 24.7 24.7 0 0 1 6.1-.78zm-.05 19.75c.73 0 1.39-.2 1.97-.6.58-.4 1-.99 1.28-1.78v-1.74h-2.56c-2.11 0-3.16.7-3.16 2.1 0 .58.21 1.07.64 1.47.46.37 1.07.55 1.83.55zM92.81 30.02c3.09 0 5.56.94 7.43 2.8 1.9 1.86 2.84 4.67 2.84 8.43v14.3H92.72V43.02c0-2.87-1.02-4.3-3.07-4.3-1.16 0-2.1.41-2.84 1.24-.7.79-1.05 2.06-1.05 3.8v11.77H75.4V30.48h9.85v2.48a9.56 9.56 0 0 1 3.4-2.2c1.28-.5 2.67-.74 4.16-.74zM119.58 47.85l-1.65 1.78v5.91h-10.36v-34h10.36v16.23l7.2-7.29h12.23L127 41.34l11.18 14.2h-12.5l-6.1-7.7z"/>
  <path fill="#333" d="M34.25 7.48c1.63 0 3.1.39 4.43 1.16a8.05 8.05 0 0 1 3.13 3.18 9.22 9.22 0 0 1 1.16 4.65c0 1.73-.38 3.28-1.16 4.65a8.29 8.29 0 0 1-7.56 4.33c-1.74 0-3.3-.43-4.67-1.3a8.07 8.07 0 0 1-3.03-3.65v4.85h-1.1V0h1.14v12.37a7.9 7.9 0 0 1 3.02-3.59 8.52 8.52 0 0 1 4.64-1.3zm-.04 16.95a7.3 7.3 0 0 0 6.63-3.83c.67-1.2 1-2.58 1-4.13 0-1.55-.33-2.92-1-4.1a7.43 7.43 0 0 0-6.63-3.83c-1.44 0-2.74.34-3.91 1.03a7.12 7.12 0 0 0-2.72 2.8 8.24 8.24 0 0 0-1 4.1c0 1.55.34 2.93 1 4.13a7.37 7.37 0 0 0 2.72 2.84c1.17.66 2.47.99 3.91.99zM63.27 16.64H47.64c.02 1.5.38 2.85 1.07 4.03a7.29 7.29 0 0 0 2.81 2.77c1.22.66 2.57.99 4.06.99a8.6 8.6 0 0 0 3.36-.65 6.42 6.42 0 0 0 2.55-1.98l.72.75a8.05 8.05 0 0 1-2.92 2.15c-1.15.5-2.38.75-3.71.75-1.74 0-3.3-.37-4.67-1.12a8.46 8.46 0 0 1-3.2-3.21 9.22 9.22 0 0 1-1.17-4.65c0-1.73.36-3.28 1.07-4.65a8.15 8.15 0 0 1 7.32-4.34 8.09 8.09 0 0 1 7.24 4.27 9.4 9.4 0 0 1 1.1 4.58v.3zM54.92 8.5a6.86 6.86 0 0 0-6.18 3.52c-.64 1.09-1 2.32-1.06 3.69H62.2a8.03 8.03 0 0 0-1.14-3.7 6.86 6.86 0 0 0-6.15-3.51z"/>
  <path fill="#2BA9DF" d="M37.43 87.74l-1.64 1.81v5.99H25.45V61.12H35.8v16.42l7.18-7.38h12.2l-10.33 11L56 95.54H43.52l-6.09-7.8zM59.72 70.16h10.33v25.38H59.72V70.16zm5.17-2.04c-1.86 0-3.37-.5-4.53-1.48a4.97 4.97 0 0 1-1.7-3.85c0-1.55.57-2.82 1.7-3.8a6.6 6.6 0 0 1 4.53-1.54c1.89 0 3.4.48 4.52 1.44 1.13.96 1.7 2.2 1.7 3.71 0 1.61-.57 2.94-1.7 4a6.5 6.5 0 0 1-4.52 1.52zM93.67 69.7c3.08 0 5.55.94 7.41 2.83 1.9 1.89 2.84 4.73 2.84 8.53v14.48H93.58V82.87c0-2.9-1.02-4.36-3.06-4.36a3.6 3.6 0 0 0-2.84 1.26c-.7.8-1.05 2.08-1.05 3.85v11.92H76.3V70.16h9.83v2.5a9.52 9.52 0 0 1 3.38-2.22c1.28-.5 2.67-.74 4.16-.74zM138.18 61.12v34.42h-9.83v-2.1c-1.5 1.71-3.78 2.56-6.86 2.56-2.2 0-4.22-.53-6.08-1.58a11.85 11.85 0 0 1-4.39-4.64 14.63 14.63 0 0 1-1.6-6.95c0-2.63.53-4.94 1.6-6.91a11.52 11.52 0 0 1 4.4-4.6 11.88 11.88 0 0 1 6.07-1.62c2.78 0 4.9.73 6.36 2.18V61.12h10.33zm-14.22 26.72c1.19 0 2.17-.44 2.93-1.3a5.55 5.55 0 0 0 1.14-3.71c0-1.58-.38-2.8-1.14-3.67a3.72 3.72 0 0 0-2.93-1.3c-1.19 0-2.16.44-2.92 1.3-.77.87-1.15 2.09-1.15 3.67 0 1.57.38 2.81 1.14 3.7.77.87 1.74 1.3 2.93 1.3z"/>
  <path fill="#333" d="M21.07 96l-3.54-3.91c-1.85 2.47-4.47 3.7-7.85 3.7a9.75 9.75 0 0 1-3.88-.73 6.53 6.53 0 0 1-2.67-2.1 5.46 5.46 0 0 1-.95-3.16c0-1.38.46-2.65 1.39-3.8.94-1.19 2.58-2.48 4.9-3.89l-.17-.2a16.43 16.43 0 0 1-2.4-3.12c-.4-.83-.6-1.73-.6-2.7 0-1.46.46-2.62 1.41-3.5a5.57 5.57 0 0 1 3.89-1.32c1.53 0 2.73.4 3.61 1.21.9.79 1.36 1.88 1.36 3.26 0 1.18-.41 2.24-1.22 3.19-.79.92-2.23 2.04-4.33 3.36l7.44 8.17c.8-1.46 1.4-3.15 1.76-5.1l.94.25a16.58 16.58 0 0 1-2.03 5.58l3.69 4.05-.75.76zM6.37 76.09c0 .8.2 1.58.58 2.32.4.74 1.17 1.74 2.3 3.01l.13.14a25.4 25.4 0 0 0 3.11-2.11 6.6 6.6 0 0 0 1.59-1.8 3.9 3.9 0 0 0 .47-1.91c0-1.06-.35-1.9-1.05-2.53a4.12 4.12 0 0 0-2.9-.97c-1.31 0-2.35.36-3.11 1.08a3.6 3.6 0 0 0-1.12 2.77zm3.35 18.73c3.06 0 5.44-1.15 7.13-3.46l-7.7-8.52c-1.52.92-2.7 1.75-3.55 2.5a7.4 7.4 0 0 0-1.8 2.1c-.33.7-.5 1.46-.5 2.3 0 1.52.58 2.75 1.75 3.7a7.41 7.41 0 0 0 4.67 1.38z"/>
</svg>
