<svg xmlns="http://www.w3.org/2000/svg" fill-rule="evenodd" stroke-linejoin="round" stroke-miterlimit="1.41" clip-rule="evenodd" viewBox="0 0 56 57">
  <path fill="#fff" d="M55.6 28.94c0 5.32-1.14 10.06-3.42 14.24a24.54 24.54 0 0 1-9.68 9.8c-4.1 2.35-8.85 3.53-14.25 3.53-5.08 0-9.8-1.3-14.12-3.87A28.55 28.55 0 0 1 3.76 42.38 27.7 27.7 0 0 1 0 28.25c0-5.08 1.25-9.8 3.76-14.12A28.53 28.53 0 0 1 14.13 3.87 27.07 27.07 0 0 1 28.25 0a26.6 26.6 0 0 1 18.92 7.4l-7.64 7.41a15.16 15.16 0 0 0-8.77-4.21 17.1 17.1 0 0 0-9.46 1.36 17.38 17.38 0 0 0-10.6 16.3c.01 3.26.8 6.26 2.4 9a19.32 19.32 0 0 0 6.38 6.49c2.66 1.6 5.58 2.4 8.77 2.4 3.42 0 6.42-.77 9-2.29a15.76 15.76 0 0 0 5.13-4.9 15.21 15.21 0 0 0 1.94-5H28.25v-9.8h26.9c.3 1.67.45 3.26.45 4.78z"/>
</svg>
