<svg xmlns="http://www.w3.org/2000/svg" width="24" height="24" fill="none" viewBox="0 0 24 24">
  <rect width="24" height="24" fill="#92DDFF" opacity=".25" rx="2"/>
  <path fill="#2BA9DF" d="M17.25 10c.5 0 .9.2 1.23.52.33.33.52.74.52 1.23v3.06c0 .14-.05.25-.14.33-.08.08-.19.11-.3.11h-1.31v2.63a.89.89 0 0 1-.88.87H7.63A.87.87 0 0 1 7 18.5a.87.87 0 0 1-.25-.63v-2.62H5.44c-.14 0-.25-.03-.33-.1-.08-.1-.11-.2-.11-.34v-3.06c0-.5.16-.9.5-1.23.32-.33.76-.52 1.25-.52V5.62a.89.89 0 0 1 .88-.88h7.51c.22.01.44.1.6.26L17 6.25c.17.17.25.39.25.6V10zm-1.75 7v-2.63h-7V17h7zm0-6.13V8.25h-1.31c-.14 0-.25-.03-.33-.1-.08-.1-.11-.2-.11-.34V6.5H8.5v4.38h7zm1.31 1.97c.17 0 .33-.05.47-.19.1-.1.19-.27.19-.46a.78.78 0 0 0-.2-.47.78.78 0 0 0-.46-.19.66.66 0 0 0-.65.66c0 .19.05.35.19.46.1.14.27.2.46.2z"/>
</svg>
