<svg xmlns="http://www.w3.org/2000/svg" width="14" height="11" fill="none" viewBox="0 0 14 11">
  <path fill="#828282" d="M11.73 1C11.3.62 10.8.4 10.21.3A3.65 3.65 0 0 0 7 1.35 3.7 3.7 0 0 0 3.79.3C3.2.4 2.7.63 2.27 1a3.5 3.5 0 0 0-1.15 3.6c.17.63.47 1.17.89 1.6l4.1 4.17c.25.26.55.38.89.38.34 0 .64-.13.9-.38L12 6.2a3.64 3.64 0 0 0 .88-3.47A3.65 3.65 0 0 0 11.73 1zm-.53 4.4L7.07 9.59c-.05.06-.1.06-.14 0L2.8 5.4A2.4 2.4 0 0 1 3 1.87c.46-.38.99-.54 1.6-.5.62.05 1.15.3 1.59.75l.82.83.82-.83c.44-.45.96-.7 1.57-.75a2.32 2.32 0 0 1 2.4 2.95c-.12.43-.31.79-.6 1.09z"/>
</svg>
